<?xml version="1.0" encoding="UTF-8"?>
<!DOCTYPE svg PUBLIC "-//W3C//DTD SVG 1.1//EN" "http://www.w3.org/Graphics/SVG/1.1/DTD/svg11.dtd">
<!-- Creator: CorelDRAW 2021 (64 Bit) -->
<svg xmlns="http://www.w3.org/2000/svg" xml:space="preserve" width="130.048mm" height="97.536mm" version="1.1" style="shape-rendering:geometricPrecision; text-rendering:geometricPrecision; image-rendering:optimizeQuality; fill-rule:evenodd; clip-rule:evenodd"
viewBox="0 0 1340.66 1005.49"
 xmlns:xlink="http://www.w3.org/1999/xlink"
 xmlns:xodm="http://www.corel.com/coreldraw/odm/2003">
 <defs>
  <style type="text/css">
   <![CDATA[
    .str0 {stroke:#41556D;stroke-width:2.06;stroke-miterlimit:22.9256}
    .fil2 {fill:none}
    .fil3 {fill:#FEFEFE}
    .fil8 {fill:#848688}
    .fil0 {fill:#334456}
    .fil1 {fill:#41556D}
    .fil5 {fill:#AEBEB5}
    .fil7 {fill:#BED0C6}
    .fil4 {fill:#D0E4D9}
    .fil6 {fill:#EBEAF2}
   ]]>
  </style>
    <clipPath id="id0">
     <path d="M-0 1005.49l1340.66 0 0 -1005.49 -1340.66 0 0 1005.49z"/>
    </clipPath>
 </defs>
 <g id="Camada_x0020_1">
  <metadata id="CorelCorpID_0Corel-Layer"/>
  <g id="_1644234894464">
   <polygon class="fil0" points="-0,1005.49 1340.66,1005.49 1340.66,0 -0,0 "/>
   <g style="clip-path:url(#id0)">
    <g>
     <path id="_1" class="fil1 str0" d="M464.63 1069.83c-30.35,16.91 -69.82,24.54 -95.67,26.37 -48.23,3.42 -58.21,-6.91 -80.56,-23.57 -20.27,24.17 -49.94,40.41 -83.9,42.82 -55.38,3.92 -104.65,-30.18 -122.27,-80.11 -0.97,-0.31 -1.94,-0.64 -2.9,-0.97 -20.18,28.28 -52.35,47.67 -89.71,50.32 -63.69,4.51 -119.31,-41.27 -127.99,-103.58 -55.26,-7.66 -121.31,-95.1 -93.7,-146.13 62,-114.6 82.08,-140.7 104.12,-86.01 78.34,194.41 228.85,-16.65 332.42,125.72 81.03,111.39 168.36,79.6 228.6,68.19 93.3,-17.67 99.42,89.14 31.56,126.96z"/>
     <path class="fil1 str0" d="M763.91 -87.17c32.01,-17.84 73.64,-25.88 100.9,-27.81 50.86,-3.6 61.39,7.29 84.97,24.86 21.38,-25.49 52.67,-42.62 88.49,-45.16 58.4,-4.14 110.37,31.84 128.96,84.5 1.02,0.33 2.04,0.67 3.06,1.02 21.28,-29.83 55.21,-50.28 94.62,-53.07 67.17,-4.76 125.84,43.53 134.98,109.25 58.29,8.08 127.94,100.3 98.82,154.12 -65.39,120.86 -86.57,148.39 -109.81,90.71 -82.62,-205.04 -241.37,17.56 -350.6,-132.59 -85.46,-117.48 -177.57,-83.96 -241.1,-71.92 -98.4,18.64 -104.86,-94.02 -33.28,-133.9z"/>
    </g>
   </g>
   <polygon class="fil2" points="-0,1005.49 1340.66,1005.49 1340.66,0 -0,0 "/>
   <path class="fil3" d="M838.29 789.23l86.78 50c17.1,9.85 23.15,13.36 43.49,16.02 21.18,2.77 32.9,-1.45 47.56,-7.93 7.87,-4.64 15.73,-9.28 23.6,-13.92 21.55,-12.71 30.08,-6.76 49.64,4.61 31.53,18.33 63.07,36.65 94.6,54.97 9.62,-5.55 19.25,-11.11 28.87,-16.67 -32.23,-18.61 -64.46,-37.22 -96.69,-55.82 -12.99,-7.5 -25.56,-14.32 -40.37,-16.8 -19.43,-3.25 -41.35,0.08 -59.3,10.25 -6.6,3.74 -13.96,7.87 -19.3,10.95 -16.41,9.47 -27.67,7.44 -43.33,-1.6l-87.22 -50.36 209.64 -120.52c0.48,-0.28 1.81,-1 3.25,-1.79 6.31,-3.45 14.35,-7.86 20.01,-13.83 10.06,-10.61 13.27,-22.67 -0.5,-35.73l-1.36 -1.29 -107.7 -62.29 51.55 -28.93 0 -26.06 -74.85 41.51 -100.43 -58.09c-16.17,-10.94 -5.52,-14.29 4.8,-24.24 8.6,-8.28 11.46,-15.36 9.66,-23.54l0 -0.06c-1.71,-7.79 -6.71,-12.05 -14.37,-16.64l-29.26 -17.01c3.13,-4.32 4.86,-9.12 4.86,-14.24 0,-10.66 -7.49,-19.96 -19.61,-26.38 -10.38,-5.5 -24.4,-8.91 -39.59,-8.91 -15.19,0 -29.21,3.41 -39.59,8.91 -0.31,0.16 -0.61,0.33 -0.91,0.49 -16.36,-8.98 -41.99,-22.37 -49.23,-23.19 -13.74,-1.55 -24.53,3.1 -42.19,13.78 -15.21,9.2 -29.65,16.25 -44.22,18.36 -13.88,2.01 -28.7,-0.38 -45.76,-9.62l0 -0.01 -412.48 -235.55 -26.17 20.78 423.3 241.8 0.24 0.12c23.77,12.96 44.96,16.22 65.24,13.28 19.66,-2.85 37.59,-11.41 55.91,-22.5 11.51,-6.96 17.77,-10.07 22.7,-9.52 2.77,0.31 20.55,9.91 33.96,17.36 -0.01,0.26 -0.01,0.52 -0.01,0.78 0,5.14 1.75,9.97 4.91,14.31l-448.65 259.03 26.84 15.66 452.24 -256.65c7.3,1.88 15.4,2.94 23.85,2.94 8.51,0 16.64,-1.07 23.98,-2.97l37.26 21.77c-7.8,7.03 -19.86,13.65 -24.36,22.66 -2.93,5.87 -2.87,11.46 4.37,23.32 3.92,6.41 17.75,16.71 25.94,22.09l0.73 0.49 219.91 127.19c-1.96,1.17 -4.04,2.31 -5.89,3.32 -1.14,0.62 -2.22,1.22 -3.85,2.16l-512.12 294.44 29.36 18.89 260.26 -149.62 0 0zm-54.88 -408.2c26.24,0 26.24,-23.8 0,-23.8 -26.25,0 -26.25,23.8 0,23.8z"/>
   <path class="fil3" d="M755.53 891.93l36.12 20.15c20.41,11.39 20.62,10.94 -0.15,22.04l-35.38 18.92 24.44 8.28 40.48 -22.9c25.53,-14.44 26.94,-14.57 3.39,-27.68 -24.33,-13.55 -48.52,-27.25 -72.81,-40.97l3.91 22.15z"/>
   <g>
    <g>
     <g>
      <g>
       <polygon class="fil0" points="628.47,760.23 647.94,783.01 688.62,774.26 694.83,766.7 677.75,743.17 634.68,752.66 "/>
       <g>
        <polygon class="fil4" points="614.48,763.56 647.94,783.01 647.94,737.32 614.48,718.39 "/>
        <polygon class="fil5" points="677.32,767.29 647.94,783.01 647.94,737.32 677.32,722.12 "/>
        <polygon class="fil6" points="645.42,701.52 614.48,718.39 647.94,737.32 677.32,722.12 "/>
       </g>
      </g>
      <g>
       <polygon class="fil0" points="628.47,760.23 647.94,783.01 688.62,774.26 694.83,766.7 677.75,743.17 634.68,752.66 "/>
       <g>
        <polygon class="fil4" points="614.48,763.56 647.94,783.01 647.94,737.32 614.48,718.39 "/>
        <polygon class="fil5" points="677.32,767.29 647.94,783.01 647.94,737.32 677.32,722.12 "/>
        <polygon class="fil6" points="645.42,701.52 614.48,718.39 647.94,737.32 677.32,722.12 "/>
       </g>
      </g>
     </g>
     <g>
      <g>
       <polygon class="fil0" points="673.07,790.18 692.53,812.96 733.22,804.22 739.42,796.65 722.34,773.13 679.27,782.62 "/>
       <g>
        <polygon class="fil4" points="659.08,793.52 692.53,812.96 692.53,767.27 659.08,748.35 "/>
        <polygon class="fil5" points="721.91,797.25 692.53,812.96 692.53,767.27 721.91,752.08 "/>
        <polygon class="fil6" points="690.01,731.48 659.08,748.35 692.53,767.27 721.91,752.08 "/>
       </g>
      </g>
      <g>
       <polygon class="fil0" points="673.07,790.18 692.53,812.96 733.22,804.22 739.42,796.65 722.34,773.13 679.27,782.62 "/>
       <g>
        <polygon class="fil4" points="659.08,793.52 692.53,812.96 692.53,767.27 659.08,748.35 "/>
        <polygon class="fil5" points="721.91,797.25 692.53,812.96 692.53,767.27 721.91,752.08 "/>
        <polygon class="fil6" points="690.01,731.48 659.08,748.35 692.53,767.27 721.91,752.08 "/>
       </g>
      </g>
     </g>
     <g>
      <g>
       <polygon class="fil0" points="827.39,841.53 845.7,856.28 883.98,846.88 889.82,841 873.75,825.54 833.23,835.65 "/>
       <polygon class="fil4" points="812.25,836.83 845.7,856.28 845.7,829.48 812.25,810.55 "/>
       <polygon class="fil5" points="875.08,840.56 845.7,856.28 845.7,829.48 875.08,814.29 "/>
       <polygon class="fil6" points="843.18,793.69 812.25,810.55 845.7,829.48 875.08,814.29 "/>
       <polygon class="fil4" points="812.25,836.83 845.7,856.28 845.7,829.48 812.25,810.55 "/>
       <polygon class="fil5" points="875.08,840.56 845.7,856.28 845.7,829.48 875.08,814.29 "/>
       <polygon class="fil6" points="843.18,793.69 812.25,810.55 845.7,829.48 875.08,814.29 "/>
      </g>
      <g>
       <g>
        <polygon class="fil0" points="516.02,886.92 534.33,901.67 572.62,892.27 578.46,886.39 562.39,870.93 521.86,881.04 "/>
        <polygon class="fil4" points="500.88,882.22 534.33,901.67 534.33,874.87 500.88,855.94 "/>
        <polygon class="fil5" points="563.72,885.95 534.33,901.67 534.33,874.87 563.72,859.67 "/>
        <polygon class="fil6" points="531.82,839.08 500.88,855.94 534.33,874.87 563.72,859.67 "/>
        <polygon class="fil4" points="500.88,882.22 534.33,901.67 534.33,874.87 500.88,855.94 "/>
        <polygon class="fil5" points="563.72,885.95 534.33,901.67 534.33,874.87 563.72,859.67 "/>
        <polygon class="fil6" points="531.82,839.08 500.88,855.94 534.33,874.87 563.72,859.67 "/>
       </g>
       <g>
        <g>
         <g>
          <polygon class="fil0" points="357.66,521.89 377.12,544.67 417.81,535.93 424.02,528.37 406.94,504.84 363.87,514.33 "/>
          <g>
           <polygon class="fil4" points="343.67,525.23 377.12,544.67 377.12,498.99 343.67,480.06 "/>
           <polygon class="fil5" points="406.51,528.96 377.12,544.67 377.12,498.99 406.51,483.79 "/>
           <polygon class="fil6" points="374.61,463.19 343.67,480.06 377.12,498.99 406.51,483.79 "/>
          </g>
         </g>
         <g>
          <polygon class="fil0" points="357.66,521.89 377.12,544.67 417.81,535.93 424.02,528.37 406.94,504.84 363.87,514.33 "/>
          <g>
           <polygon class="fil4" points="343.67,525.23 377.12,544.67 377.12,498.99 343.67,480.06 "/>
           <polygon class="fil5" points="406.51,528.96 377.12,544.67 377.12,498.99 406.51,483.79 "/>
           <polygon class="fil6" points="374.61,463.19 343.67,480.06 377.12,498.99 406.51,483.79 "/>
          </g>
         </g>
        </g>
        <g>
         <g>
          <polygon class="fil0" points="394.95,643.78 414.41,666.56 455.1,657.81 461.31,650.25 444.23,626.72 401.16,636.21 "/>
          <g>
           <polygon class="fil4" points="380.96,647.11 414.41,666.56 414.41,620.87 380.96,601.94 "/>
           <polygon class="fil5" points="443.8,650.84 414.41,666.56 414.41,620.87 443.8,605.67 "/>
           <polygon class="fil6" points="411.9,585.07 380.96,601.94 414.41,620.87 443.8,605.67 "/>
          </g>
         </g>
         <g>
          <polygon class="fil0" points="394.95,643.78 414.41,666.56 455.1,657.81 461.31,650.25 444.23,626.72 401.16,636.21 "/>
          <g>
           <polygon class="fil4" points="380.96,647.11 414.41,666.56 414.41,620.87 380.96,601.94 "/>
           <polygon class="fil5" points="443.8,650.84 414.41,666.56 414.41,620.87 443.8,605.67 "/>
           <polygon class="fil6" points="411.9,585.07 380.96,601.94 414.41,620.87 443.8,605.67 "/>
          </g>
         </g>
        </g>
        <g>
         <g>
          <polygon class="fil0" points="310.6,554.57 330.07,577.35 370.75,568.61 376.96,561.05 359.88,537.52 316.81,547.01 "/>
          <g>
           <polygon class="fil4" points="296.61,557.91 330.07,577.35 330.07,531.66 296.61,512.74 "/>
           <polygon class="fil5" points="359.45,561.64 330.07,577.35 330.07,531.66 359.45,516.47 "/>
           <polygon class="fil6" points="327.55,495.87 296.61,512.74 330.07,531.66 359.45,516.47 "/>
          </g>
         </g>
         <g>
          <polygon class="fil0" points="310.6,554.57 330.07,577.35 370.75,568.61 376.96,561.05 359.88,537.52 316.81,547.01 "/>
          <g>
           <polygon class="fil4" points="296.61,557.91 330.07,577.35 330.07,531.66 296.61,512.74 "/>
           <polygon class="fil5" points="359.45,561.64 330.07,577.35 330.07,531.66 359.45,516.47 "/>
           <polygon class="fil6" points="327.55,495.87 296.61,512.74 330.07,531.66 359.45,516.47 "/>
          </g>
         </g>
        </g>
        <g>
         <polygon class="fil0" points="351.15,680.86 369.46,695.6 407.74,686.2 413.58,680.32 397.51,664.87 356.99,674.98 "/>
         <polygon class="fil4" points="336.01,676.16 369.46,695.6 369.46,668.81 336.01,649.88 "/>
         <polygon class="fil5" points="398.84,679.89 369.46,695.6 369.46,668.81 398.84,653.61 "/>
         <polygon class="fil6" points="366.94,633.01 336.01,649.88 369.46,668.81 398.84,653.61 "/>
         <polygon class="fil4" points="336.01,676.16 369.46,695.6 369.46,668.81 336.01,649.88 "/>
         <polygon class="fil5" points="398.84,679.89 369.46,695.6 369.46,668.81 398.84,653.61 "/>
         <polygon class="fil6" points="366.94,633.01 336.01,649.88 369.46,668.81 398.84,653.61 "/>
        </g>
        <g>
         <g>
          <g>
           <polygon class="fil0" points="882.64,666.52 902.1,689.3 942.79,680.55 948.99,672.99 931.91,649.46 888.84,658.95 "/>
           <g>
            <polygon class="fil4" points="868.65,669.85 902.1,689.3 902.1,643.61 868.65,624.68 "/>
            <polygon class="fil5" points="931.48,673.58 902.1,689.3 902.1,643.61 931.48,628.41 "/>
            <polygon class="fil6" points="899.58,607.81 868.65,624.68 902.1,643.61 931.48,628.41 "/>
           </g>
          </g>
          <g>
           <polygon class="fil0" points="882.64,666.52 902.1,689.3 942.79,680.55 948.99,672.99 931.91,649.46 888.84,658.95 "/>
           <g>
            <polygon class="fil4" points="868.65,669.85 902.1,689.3 902.1,643.61 868.65,624.68 "/>
            <polygon class="fil5" points="931.48,673.58 902.1,689.3 902.1,643.61 931.48,628.41 "/>
            <polygon class="fil6" points="899.58,607.81 868.65,624.68 902.1,643.61 931.48,628.41 "/>
           </g>
          </g>
         </g>
         <polygon class="fil7" points="868.65,669.85 902.1,689.3 868.65,642.29 "/>
         <g>
          <polygon class="fil0" points="245.99,142.03 264.3,156.78 302.58,147.38 308.42,141.5 292.35,126.04 251.83,136.16 "/>
          <polygon class="fil4" points="230.85,137.33 264.3,156.78 264.3,129.98 230.85,111.05 "/>
          <polygon class="fil5" points="293.68,141.06 264.3,156.78 264.3,129.98 293.68,114.79 "/>
          <polygon class="fil6" points="261.78,94.19 230.85,111.05 264.3,129.98 293.68,114.79 "/>
          <polygon class="fil4" points="230.85,137.33 264.3,156.78 264.3,129.98 230.85,111.05 "/>
          <polygon class="fil5" points="293.68,141.06 264.3,156.78 264.3,129.98 293.68,114.79 "/>
          <polygon class="fil6" points="261.78,94.19 230.85,111.05 264.3,129.98 293.68,114.79 "/>
         </g>
         <g>
          <polygon class="fil0" points="157.24,204.22 175.55,218.97 213.84,209.57 219.68,203.69 203.61,188.23 163.08,198.34 "/>
          <polygon class="fil4" points="142.1,199.52 175.55,218.97 175.55,192.17 142.1,173.24 "/>
          <polygon class="fil5" points="204.94,203.25 175.55,218.97 175.55,192.17 204.94,176.98 "/>
          <polygon class="fil6" points="173.04,156.38 142.1,173.24 175.55,192.17 204.94,176.98 "/>
          <polygon class="fil4" points="142.1,199.52 175.55,218.97 175.55,192.17 142.1,173.24 "/>
          <polygon class="fil5" points="204.94,203.25 175.55,218.97 175.55,192.17 204.94,176.98 "/>
          <polygon class="fil6" points="173.04,156.38 142.1,173.24 175.55,192.17 204.94,176.98 "/>
         </g>
         <g>
          <polygon class="fil0" points="202.89,232.72 221.2,247.46 259.48,238.06 265.32,232.18 249.25,216.72 208.73,226.84 "/>
          <polygon class="fil4" points="187.75,228.01 221.2,247.46 221.2,220.66 187.75,201.74 "/>
          <polygon class="fil5" points="250.58,231.75 221.2,247.46 221.2,220.66 250.58,205.47 "/>
          <polygon class="fil6" points="218.68,184.87 187.75,201.74 221.2,220.66 250.58,205.47 "/>
          <polygon class="fil4" points="187.75,228.01 221.2,247.46 221.2,220.66 187.75,201.74 "/>
          <polygon class="fil5" points="250.58,231.75 221.2,247.46 221.2,220.66 250.58,205.47 "/>
          <polygon class="fil6" points="218.68,184.87 187.75,201.74 221.2,220.66 250.58,205.47 "/>
         </g>
         <g>
          <polygon class="fil0" points="503.46,232.28 521.77,247.02 560.06,237.63 565.9,231.75 549.83,216.29 509.3,226.4 "/>
          <polygon class="fil4" points="488.32,227.58 521.77,247.02 521.77,220.23 488.32,201.3 "/>
          <polygon class="fil5" points="551.16,231.31 521.77,247.02 521.77,220.23 551.16,205.03 "/>
          <polygon class="fil6" points="519.26,184.43 488.32,201.3 521.77,220.23 551.16,205.03 "/>
          <polygon class="fil4" points="488.32,227.58 521.77,247.02 521.77,220.23 488.32,201.3 "/>
          <polygon class="fil5" points="551.16,231.31 521.77,247.02 521.77,220.23 551.16,205.03 "/>
          <polygon class="fil6" points="519.26,184.43 488.32,201.3 521.77,220.23 551.16,205.03 "/>
         </g>
         <g>
          <g>
           <polygon class="fil0" points="448.64,255.63 468.1,278.41 508.79,269.67 515,262.11 497.92,238.58 454.85,248.07 "/>
           <g>
            <polygon class="fil4" points="434.65,258.97 468.1,278.41 468.1,232.72 434.65,213.8 "/>
            <polygon class="fil5" points="497.49,262.7 468.1,278.41 468.1,232.72 497.49,217.53 "/>
            <polygon class="fil6" points="465.59,196.93 434.65,213.8 468.1,232.72 497.49,217.53 "/>
           </g>
          </g>
         </g>
         <g>
          <g>
           <polygon class="fil0" points="545.55,310.44 565.01,333.22 605.7,324.48 611.9,316.92 594.83,293.39 551.75,302.88 "/>
           <g>
            <polygon class="fil4" points="531.56,313.78 565.01,333.22 565.01,287.53 531.56,268.61 "/>
            <polygon class="fil5" points="594.39,317.51 565.01,333.22 565.01,287.53 594.39,272.34 "/>
            <polygon class="fil6" points="562.49,251.74 531.56,268.61 565.01,287.53 594.39,272.34 "/>
           </g>
          </g>
          <g>
           <polygon class="fil0" points="545.55,310.44 565.01,333.22 605.7,324.48 611.9,316.92 594.83,293.39 551.75,302.88 "/>
           <g>
            <polygon class="fil4" points="531.56,313.78 565.01,333.22 565.01,287.53 531.56,268.61 "/>
            <polygon class="fil5" points="594.39,317.51 565.01,333.22 565.01,287.53 594.39,272.34 "/>
            <polygon class="fil6" points="562.49,251.74 531.56,268.61 565.01,287.53 594.39,272.34 "/>
           </g>
          </g>
         </g>
         <g>
          <g>
           <polygon class="fil0" points="1081.7,669.75 1101.17,692.53 1141.85,683.79 1148.06,676.22 1130.98,652.7 1087.91,662.19 "/>
           <g>
            <polygon class="fil4" points="1067.71,673.08 1101.17,692.53 1101.17,646.84 1067.71,627.92 "/>
            <polygon class="fil5" points="1130.55,676.82 1101.17,692.53 1101.17,646.84 1130.55,631.65 "/>
            <polygon class="fil6" points="1098.65,611.05 1067.71,627.92 1101.17,646.84 1130.55,631.65 "/>
           </g>
          </g>
          <g>
           <polygon class="fil0" points="1081.7,669.75 1101.17,692.53 1141.85,683.79 1148.06,676.22 1130.98,652.7 1087.91,662.19 "/>
           <g>
            <polygon class="fil4" points="1067.71,673.08 1101.17,692.53 1101.17,646.84 1067.71,627.92 "/>
            <polygon class="fil5" points="1130.55,676.82 1101.17,692.53 1101.17,646.84 1130.55,631.65 "/>
            <polygon class="fil6" points="1098.65,611.05 1067.71,627.92 1101.17,646.84 1130.55,631.65 "/>
           </g>
          </g>
         </g>
         <g>
          <polygon class="fil0" points="1038.53,708.63 1056.84,723.37 1095.12,713.97 1100.96,708.09 1084.89,692.64 1044.37,702.75 "/>
          <polygon class="fil4" points="1023.39,703.93 1056.84,723.37 1056.84,696.58 1023.39,677.65 "/>
          <polygon class="fil5" points="1086.22,707.66 1056.84,723.37 1056.84,696.58 1086.22,681.38 "/>
          <polygon class="fil6" points="1054.32,660.78 1023.39,677.65 1056.84,696.58 1086.22,681.38 "/>
          <polygon class="fil4" points="1023.39,703.93 1056.84,723.37 1056.84,696.58 1023.39,677.65 "/>
          <polygon class="fil5" points="1086.22,707.66 1056.84,723.37 1056.84,696.58 1086.22,681.38 "/>
          <polygon class="fil6" points="1054.32,660.78 1023.39,677.65 1056.84,696.58 1086.22,681.38 "/>
         </g>
         <g>
          <g>
           <polygon class="fil0" points="915.18,775.85 934.64,798.63 975.33,789.89 981.54,782.32 964.46,758.8 921.39,768.28 "/>
           <g>
            <polygon class="fil4" points="901.19,779.18 934.64,798.63 934.64,752.94 901.19,734.01 "/>
            <polygon class="fil5" points="964.02,782.92 934.64,798.63 934.64,752.94 964.02,737.75 "/>
            <polygon class="fil6" points="932.13,717.15 901.19,734.01 934.64,752.94 964.02,737.75 "/>
           </g>
          </g>
          <g>
           <polygon class="fil0" points="915.18,775.85 934.64,798.63 975.33,789.89 981.54,782.32 964.46,758.8 921.39,768.28 "/>
           <g>
            <polygon class="fil4" points="901.19,779.18 934.64,798.63 934.64,752.94 901.19,734.01 "/>
            <polygon class="fil5" points="964.02,782.92 934.64,798.63 934.64,752.94 964.02,737.75 "/>
            <polygon class="fil6" points="932.13,717.15 901.19,734.01 934.64,752.94 964.02,737.75 "/>
           </g>
          </g>
         </g>
         <g>
          <polygon class="fil0" points="473.86,389.69 492.17,404.43 530.45,395.03 536.3,389.15 520.23,373.69 479.7,383.81 "/>
          <polygon class="fil4" points="458.72,384.98 492.17,404.43 492.17,377.63 458.72,358.71 "/>
          <polygon class="fil5" points="521.56,388.72 492.17,404.43 492.17,377.63 521.56,362.44 "/>
          <polygon class="fil6" points="489.66,341.84 458.72,358.71 492.17,377.63 521.56,362.44 "/>
          <polygon class="fil4" points="458.72,384.98 492.17,404.43 492.17,377.63 458.72,358.71 "/>
          <polygon class="fil5" points="521.56,388.72 492.17,404.43 492.17,377.63 521.56,362.44 "/>
          <polygon class="fil6" points="489.66,341.84 458.72,358.71 492.17,377.63 521.56,362.44 "/>
         </g>
         <g>
          <polygon class="fil0" points="1064.79,557.65 1083.1,572.4 1121.38,563 1127.23,557.12 1111.16,541.66 1070.63,551.77 "/>
          <polygon class="fil4" points="1049.65,552.95 1083.1,572.4 1083.1,545.6 1049.65,526.67 "/>
          <polygon class="fil5" points="1112.49,556.68 1083.1,572.4 1083.1,545.6 1112.49,530.41 "/>
          <polygon class="fil6" points="1080.59,509.81 1049.65,526.67 1083.1,545.6 1112.49,530.41 "/>
          <polygon class="fil4" points="1049.65,552.95 1083.1,572.4 1083.1,545.6 1049.65,526.67 "/>
          <polygon class="fil5" points="1112.49,556.68 1083.1,572.4 1083.1,545.6 1112.49,530.41 "/>
          <polygon class="fil6" points="1080.59,509.81 1049.65,526.67 1083.1,545.6 1112.49,530.41 "/>
         </g>
        </g>
       </g>
      </g>
     </g>
    </g>
    <polygon class="fil5" points="296.61,557.91 330.07,577.35 296.61,530.35 "/>
   </g>
   <g>
    <g>
     <polygon class="fil0" points="372.13,218.87 327.76,162.37 351.64,137.27 416.37,119.78 424.74,131.19 458.19,178.19 459.06,178 459.55,178.67 435.67,203.77 "/>
     <g>
      <polygon class="fil4" points="372.13,218.87 284.49,167.95 284.49,49.14 372.13,100.41 "/>
      <polygon class="fil5" points="372.13,218.87 416.06,195.78 416.06,76.97 372.13,100.41 "/>
      <polygon class="fil6" points="416.06,76.97 327.44,23.51 284.49,49.14 372.13,100.41 "/>
      <polygon class="fil4" points="372.13,218.87 284.49,167.95 284.49,49.14 372.13,100.41 "/>
      <polygon class="fil5" points="372.13,218.87 416.06,195.78 416.06,76.97 372.13,100.41 "/>
      <polygon class="fil6" points="416.06,76.97 327.44,23.51 284.49,49.14 372.13,100.41 "/>
     </g>
    </g>
    <g>
     <g>
      <g>
       <g>
        <g>
         <polygon class="fil4" points="670.79,913.78 739.27,952.81 739.27,834.16 670.79,795.13 "/>
         <polygon class="fil5" points="791.3,923.56 739.27,952.81 739.27,834.16 791.3,804.91 "/>
         <polygon class="fil6" points="725.51,764.1 791.3,804.91 739.27,834.16 670.79,795.13 "/>
        </g>
       </g>
      </g>
      <g>
       <g>
        <g>
         <polygon class="fil4" points="670.79,913.78 739.27,952.81 739.27,834.16 670.79,795.13 "/>
         <polygon class="fil5" points="791.3,923.56 739.27,952.81 739.27,834.16 791.3,804.91 "/>
         <polygon class="fil6" points="725.51,764.1 791.3,804.91 739.27,834.16 670.79,795.13 "/>
        </g>
       </g>
      </g>
     </g>
     <path class="fil5" d="M674.27 837.12l17.12 9.76 0 -30.75 -17.12 -9.76 0 30.75zm42.88 24.44l17.12 9.76 0 -30.75 -17.12 -9.76 0 30.75zm-21.44 -12.22l17.12 9.76 0 -30.75 -17.12 -9.76 0 30.75z"/>
     <path class="fil5" d="M674.27 873.35l17.12 9.76 0 -30.75 -17.12 -9.76 0 30.75zm42.88 24.44l17.12 9.76 0 -30.75 -17.12 -9.76 0 30.75zm-21.44 -12.22l17.12 9.76 0 -30.75 -17.12 -9.76 0 30.75z"/>
     <path class="fil5" d="M674.27 909.58l17.12 9.76 0 -30.75 -17.12 -9.76 0 30.75zm42.88 24.44l17.12 9.76 0 -30.75 -17.12 -9.76 0 30.75zm-21.44 -12.22l17.12 9.76 0 -30.75 -17.12 -9.76 0 30.75z"/>
    </g>
   </g>
   <g>
    <polygon class="fil0" points="720.21,804.3 731.83,813.66 756.13,807.69 759.84,803.96 749.64,794.15 723.91,800.57 "/>
    <polygon class="fil4" points="710.6,801.31 731.83,813.66 731.83,796.65 710.6,784.64 "/>
    <polygon class="fil5" points="750.48,803.68 731.83,813.66 731.83,796.65 750.48,787.01 "/>
    <polygon class="fil6" points="730.23,773.93 710.6,784.64 731.83,796.65 750.48,787.01 "/>
    <polygon class="fil4" points="710.6,801.31 731.83,813.66 731.83,796.65 710.6,784.64 "/>
    <polygon class="fil5" points="750.48,803.68 731.83,813.66 731.83,796.65 750.48,787.01 "/>
    <polygon class="fil6" points="730.23,773.93 710.6,784.64 731.83,796.65 750.48,787.01 "/>
   </g>
   <polygon class="fil8" points="754.99,943.98 775.11,932.66 775.11,906.21 754.31,917.17 "/>
   <g>
    <polygon class="fil0" points="722.03,803.06 731.49,810.68 751.28,805.82 754.3,802.78 745.99,794.79 725.04,800.02 "/>
    <polygon class="fil4" points="714.2,800.62 731.49,810.68 731.49,796.82 714.2,787.04 "/>
    <polygon class="fil5" points="746.68,802.55 731.49,810.68 731.49,796.82 746.68,788.97 "/>
    <polygon class="fil6" points="730.19,778.32 714.2,787.04 731.49,796.82 746.68,788.97 "/>
    <polygon class="fil4" points="714.2,800.62 731.49,810.68 731.49,796.82 714.2,787.04 "/>
    <polygon class="fil5" points="746.68,802.55 731.49,810.68 731.49,796.82 746.68,788.97 "/>
    <polygon class="fil6" points="730.19,778.32 714.2,787.04 731.49,796.82 746.68,788.97 "/>
   </g>
  </g>
 </g>
</svg>
